<svg width="24" height="25" viewBox="0 0 24 25" fill="none" xmlns="http://www.w3.org/2000/svg">
<path d="M11.9344 0C15.8456 0 19.0164 3.19796 19.0164 7.14286C19.0164 9.85663 17.5158 12.2168 15.306 13.4257C20.3238 14.8652 24 19.4999 24 25H22.6885C22.6885 19.0862 17.9068 14.2857 12 14.2857C6.0933 14.2857 1.31148 19.0862 1.31148 25H0C0 19.5311 3.63448 14.918 8.6086 13.4507C6.37373 12.2494 4.85246 9.87533 4.85246 7.14286C4.85246 3.19796 8.02316 0 11.9344 0ZM11.9344 1.32275C8.74747 1.32275 6.16393 3.92851 6.16393 7.14286C6.16393 10.3572 8.74747 12.963 11.9344 12.963C15.1214 12.963 17.7049 10.3572 17.7049 7.14286C17.7049 3.92851 15.1214 1.32275 11.9344 1.32275Z" fill="white"/>
</svg>
