<svg width="22" height="25" viewBox="0 0 22 25" fill="none" xmlns="http://www.w3.org/2000/svg">
<path d="M14.2393 4.49735C14.2393 4.08046 14.1554 3.66762 13.9927 3.28246C13.8299 2.89731 13.5913 2.54733 13.2905 2.25255C12.9897 1.95778 12.6326 1.72398 12.2396 1.56443C11.8466 1.40489 11.4254 1.32275 11 1.32275C10.5746 1.32275 10.1534 1.40489 9.76036 1.56443C9.36737 1.72398 9.01025 1.95778 8.70948 2.25255C8.4087 2.54733 8.17014 2.89731 8.00734 3.28246C7.84455 3.66762 7.76074 4.08046 7.76074 4.49735V5.55556H14.2393V4.49735ZM1.48941 23.6772H20.4955L18.6297 6.87831H15.589V9.12698H14.2393V6.87831H7.76074V9.12698H6.41104V6.87831H3.18021L1.48941 23.6772ZM15.589 5.55556H19.8405L22 25H0L1.95706 5.55556H6.41104V4.49735C6.41104 3.90676 6.52971 3.32188 6.76033 2.77623C6.99094 2.2306 7.32896 1.7348 7.75507 1.3172C8.18118 0.89959 8.68707 0.568327 9.24382 0.342313C9.80058 0.1163 10.3974 0 11 0C11.6026 0 12.1994 0.1163 12.7562 0.342313C13.3129 0.568327 13.8188 0.89959 14.2449 1.3172C14.671 1.7348 15.009 2.2306 15.2397 2.77623C15.4703 3.32188 15.589 3.90676 15.589 4.49735V5.55556Z" fill="white"/>
</svg>
