<svg width="25" height="23" viewBox="0 0 25 23" fill="none" xmlns="http://www.w3.org/2000/svg">
<path fill-rule="evenodd" clip-rule="evenodd" d="M18.9829 0.00164099C21.3196 0.053985 23.3614 1.35313 24.3423 3.52508C25.3205 5.69168 25.2034 8.62477 23.4819 11.9216C21.7609 15.2172 18.4216 18.9156 12.8657 22.7038C12.8219 22.7336 12.7746 22.7543 12.7271 22.7721C12.5271 22.863 12.2869 22.8531 12.0923 22.7204C6.53642 18.9322 3.19706 15.2338 1.47608 11.9382C-0.245253 8.64147 -0.362479 5.70822 0.615726 3.54168C1.59654 1.36987 3.63859 0.0707381 5.9751 0.0182425C8.12923 -0.0299784 10.4712 0.978191 12.4712 3.19793C14.4745 0.966019 16.8232 -0.0465628 18.9829 0.00164099ZM18.9536 1.30145C17.1004 1.26015 14.9062 2.19946 13.0073 4.57293C12.939 4.65815 12.852 4.71772 12.7583 4.75848C12.7443 4.76576 12.7296 4.77084 12.7153 4.77703C12.7068 4.78005 12.6986 4.78415 12.6899 4.7868C12.4328 4.88526 12.1319 4.81599 11.9507 4.58953C10.0517 2.21612 7.8576 1.2766 6.0044 1.31805C4.154 1.35962 2.5704 2.37329 1.80127 4.07586C1.02983 5.78407 1.0379 8.28926 2.62842 11.3356C4.18446 14.3156 7.24313 17.7754 12.4663 21.3971C17.705 17.7691 20.7709 14.3038 22.3296 11.319C23.9203 8.27256 23.9282 5.76753 23.1567 4.05926C22.3876 2.35655 20.8042 1.34287 18.9536 1.30145Z" fill="#F5F3F5"/>
</svg>
