<svg width="25" height="25" viewBox="0 0 25 25" fill="none" xmlns="http://www.w3.org/2000/svg">
<path d="M14.9215 0C20.4877 0 25 4.48881 25 10.026C25 15.5633 20.4877 20.0521 14.9215 20.0521C12.3762 20.0521 10.0515 19.1134 8.27764 17.5651L0.925562 24.879L0 23.9583L7.35144 16.6451C5.79001 14.8792 4.84293 12.5627 4.84293 10.026C4.84293 4.48881 9.35525 0 14.9215 0ZM14.9215 1.30208C10.0781 1.30208 6.15183 5.20793 6.15183 10.026C6.15183 14.8441 10.0781 18.75 14.9215 18.75C19.7648 18.75 23.6911 14.8441 23.6911 10.026C23.6911 5.20793 19.7648 1.30208 14.9215 1.30208Z" fill="white"/>
</svg>
